<?xml version="1.0" encoding="UTF-8" standalone="no"?>
<svg
   xmlns:dc="http://purl.org/dc/elements/1.1/"
   xmlns:cc="http://creativecommons.org/ns#"
   xmlns:rdf="http://www.w3.org/1999/02/22-rdf-syntax-ns#"
   xmlns:svg="http://www.w3.org/2000/svg"
   xmlns="http://www.w3.org/2000/svg"
   xmlns:sodipodi="http://sodipodi.sourceforge.net/DTD/sodipodi-0.dtd"
   xmlns:inkscape="http://www.inkscape.org/namespaces/inkscape"
   width="408"
   height="215"
   id="svg4643"
   version="1.1"
   inkscape:version="0.48.4 r9939"
   sodipodi:docname="mockup-ntb.svg">
  <defs
     id="defs4645">
    <clipPath
       clipPathUnits="userSpaceOnUse"
       id="clipPath602">
      <path
         inkscape:connector-curvature="0"
         d="m 587.372,189.295 c 0.002,-0.034 0.002,-0.066 0.005,-0.1 l 0,0 0,0.1 -0.005,0 z"
         id="path604" />
    </clipPath>
    <linearGradient
       x1="0"
       y1="0"
       x2="1"
       y2="0"
       gradientUnits="userSpaceOnUse"
       gradientTransform="matrix(0,0.0996094,0.0996094,0,587.375,189.19531)"
       spreadMethod="pad"
       id="linearGradient610">
      <stop
         style="stop-opacity:1;stop-color:#5f6767"
         offset="0"
         id="stop612" />
      <stop
         style="stop-opacity:1;stop-color:#676b6c"
         offset="0.475616"
         id="stop614" />
      <stop
         style="stop-opacity:1;stop-color:#676b6c"
         offset="0.475616"
         id="stop616" />
      <stop
         style="stop-opacity:1;stop-color:#999c9d"
         offset="0.810974"
         id="stop618" />
      <stop
         style="stop-opacity:1;stop-color:#999c9d"
         offset="1"
         id="stop620" />
    </linearGradient>
    <clipPath
       clipPathUnits="userSpaceOnUse"
       id="clipPath576">
      <path
         inkscape:connector-curvature="0"
         d="m 587.377,189.195 c 0.291,-4.679 -3.476,-4.041 -3.476,-4.041 l 0,0 -37.549,0 c -0.194,0.019 -0.371,0.047 -0.542,0.081 l 0,0 c 0.283,-0.083 0.598,-0.146 0.958,-0.18 l 0,0 37.55,0 c 0,0 3.88,-0.662 3.463,4.238 l 0,0 -0.404,0.002 0,-0.1 z"
         id="path578" />
    </clipPath>
    <linearGradient
       x1="0"
       y1="0"
       x2="1"
       y2="0"
       gradientUnits="userSpaceOnUse"
       gradientTransform="matrix(0,4.2695312,4.2695312,0,566.81152,185.02539)"
       spreadMethod="pad"
       id="linearGradient584">
      <stop
         style="stop-opacity:1;stop-color:#5f6767"
         offset="0"
         id="stop586" />
      <stop
         style="stop-opacity:1;stop-color:#676b6c"
         offset="0.475616"
         id="stop588" />
      <stop
         style="stop-opacity:1;stop-color:#676b6c"
         offset="0.475616"
         id="stop590" />
      <stop
         style="stop-opacity:1;stop-color:#999c9d"
         offset="0.810974"
         id="stop592" />
      <stop
         style="stop-opacity:1;stop-color:#999c9d"
         offset="1"
         id="stop594" />
    </linearGradient>
    <clipPath
       clipPathUnits="userSpaceOnUse"
       id="clipPath550">
      <path
         inkscape:connector-curvature="0"
         d="m 545.81,185.235 c -2.99,0.875 -1.952,4.191 -1.952,4.191 l 0,0 0.027,0 0.016,0.098 -0.458,0.002 c 0,0 -1.132,-3.61 2.367,-4.291"
         id="path552" />
    </clipPath>
    <linearGradient
       x1="0"
       y1="0"
       x2="1"
       y2="0"
       gradientUnits="userSpaceOnUse"
       gradientTransform="matrix(0,4.2900391,4.2900391,0,544.53906,185.23535)"
       spreadMethod="pad"
       id="linearGradient558">
      <stop
         style="stop-opacity:1;stop-color:#5f6767"
         offset="0"
         id="stop560" />
      <stop
         style="stop-opacity:1;stop-color:#676b6c"
         offset="0.475616"
         id="stop562" />
      <stop
         style="stop-opacity:1;stop-color:#676b6c"
         offset="0.475616"
         id="stop564" />
      <stop
         style="stop-opacity:1;stop-color:#999c9d"
         offset="0.810974"
         id="stop566" />
      <stop
         style="stop-opacity:1;stop-color:#999c9d"
         offset="1"
         id="stop568" />
    </linearGradient>
    <clipPath
       clipPathUnits="userSpaceOnUse"
       id="clipPath524">
      <path
         inkscape:connector-curvature="0"
         d="m 546.56,184.848 37.549,0 c 0,0 3.995,-0.519 3.465,4.435 l 0,0 -43.924,0.138 c 0,0 -1.247,-4.156 2.91,-4.573"
         id="path526" />
    </clipPath>
    <linearGradient
       x1="0"
       y1="0"
       x2="1"
       y2="0"
       gradientUnits="userSpaceOnUse"
       gradientTransform="matrix(0,4.5878906,4.5878906,0,565.54883,184.83301)"
       spreadMethod="pad"
       id="linearGradient532">
      <stop
         style="stop-opacity:1;stop-color:#676b6c"
         offset="0"
         id="stop534" />
      <stop
         style="stop-opacity:1;stop-color:#dfe1e3"
         offset="0.810974"
         id="stop536" />
      <stop
         style="stop-opacity:1;stop-color:#dfe1e3"
         offset="0.810974"
         id="stop538" />
      <stop
         style="stop-opacity:1;stop-color:#e3e5e7"
         offset="0.981705"
         id="stop540" />
      <stop
         style="stop-opacity:1;stop-color:#e3e5e7"
         offset="1"
         id="stop542" />
    </linearGradient>
    <clipPath
       clipPathUnits="userSpaceOnUse"
       id="clipPath512">
      <path
         inkscape:connector-curvature="0"
         d="M 0,800 800,800 800,0 0,0 0,800 z"
         id="path514" />
    </clipPath>
    <clipPath
       clipPathUnits="userSpaceOnUse"
       id="clipPath478">
      <path
         inkscape:connector-curvature="0"
         d="m 403.797,189.489 -0.21,-8.037 c 0.276,-1.941 3.257,-1.108 3.257,-1.108 l 0,0 317.304,0 c 3.81,-0.277 3.326,0.831 3.326,0.831 l 0,0 0,8.314 -323.677,0 z"
         id="path480" />
    </clipPath>
    <linearGradient
       x1="0"
       y1="0"
       x2="1"
       y2="0"
       gradientUnits="userSpaceOnUse"
       gradientTransform="matrix(323.90723,0,0,-323.90723,403.58691,184.82715)"
       spreadMethod="pad"
       id="linearGradient486">
      <stop
         style="stop-opacity:1;stop-color:#999c9d"
         offset="0"
         id="stop488" />
      <stop
         style="stop-opacity:1;stop-color:#f5f3f6"
         offset="0.0182953"
         id="stop490" />
      <stop
         style="stop-opacity:1;stop-color:#dfe1e3"
         offset="0.0487823"
         id="stop492" />
      <stop
         style="stop-opacity:1;stop-color:#d1d1d1"
         offset="0.189026"
         id="stop494" />
      <stop
         style="stop-opacity:1;stop-color:#e3e5e7"
         offset="0.506104"
         id="stop496" />
      <stop
         style="stop-opacity:1;stop-color:#d1d1d1"
         offset="0.871948"
         id="stop498" />
      <stop
         style="stop-opacity:1;stop-color:#dfe1e3"
         offset="0.951218"
         id="stop500" />
      <stop
         style="stop-opacity:1;stop-color:#f5f3f6"
         offset="0.987808"
         id="stop502" />
      <stop
         style="stop-opacity:1;stop-color:#999c9d"
         offset="1"
         id="stop504" />
    </linearGradient>
    <clipPath
       clipPathUnits="userSpaceOnUse"
       id="clipPath466">
      <path
         inkscape:connector-curvature="0"
         d="M 0,800 800,800 800,0 0,0 0,800 z"
         id="path468" />
    </clipPath>
    <clipPath
       clipPathUnits="userSpaceOnUse"
       id="clipPath446">
      <path
         inkscape:connector-curvature="0"
         d="m 454.463,200.535 222.812,0 0,137.358 -222.812,0 0,-137.358 z"
         id="path448" />
    </clipPath>
    <linearGradient
       x1="0"
       y1="0"
       x2="1"
       y2="0"
       gradientUnits="userSpaceOnUse"
       gradientTransform="matrix(-128.83479,-198.38817,-198.38817,128.83479,630.28613,368.4082)"
       spreadMethod="pad"
       id="linearGradient454">
      <stop
         style="stop-opacity:1;stop-color:#f1f2f2"
         offset="0"
         id="stop456" />
      <stop
         style="stop-opacity:1;stop-color:#d3d2d2"
         offset="1"
         id="stop458" />
    </linearGradient>
    <clipPath
       clipPathUnits="userSpaceOnUse"
       id="clipPath434">
      <path
         inkscape:connector-curvature="0"
         d="M 0,800 800,800 800,0 0,0 0,800 z"
         id="path436" />
    </clipPath>
  </defs>
  <sodipodi:namedview
     id="base"
     pagecolor="#ffffff"
     bordercolor="#666666"
     borderopacity="1.0"
     inkscape:pageopacity="0.0"
     inkscape:pageshadow="2"
     inkscape:zoom="1.979899"
     inkscape:cx="338.16771"
     inkscape:cy="108.31532"
     inkscape:document-units="px"
     inkscape:current-layer="layer1"
     showgrid="false"
     inkscape:window-width="1855"
     inkscape:window-height="1056"
     inkscape:window-x="65"
     inkscape:window-y="24"
     inkscape:window-maximized="1" />
  <metadata
     id="metadata4648">
    <rdf:RDF>
      <cc:Work
         rdf:about="">
        <dc:format>image/svg+xml</dc:format>
        <dc:type
           rdf:resource="http://purl.org/dc/dcmitype/StillImage" />
        <dc:title></dc:title>
      </cc:Work>
    </rdf:RDF>
  </metadata>
  <g
     inkscape:label="Layer 1"
     inkscape:groupmode="layer"
     id="layer1"
     transform="translate(0,-837.36218)">
    <g
       transform="matrix(1.25,0,0,-1.25,-504.48375,1271.2103)"
       id="g430">
      <g
         id="g432"
         clip-path="url(#clipPath434)">
        <g
           id="g438"
           transform="translate(686.2412,191.6182)">
          <path
             inkscape:connector-curvature="0"
             d="m 0,0 c 0,-4.107 -2.479,-7.438 -5.537,-7.438 l -230.327,0 c -3.059,0 -5.537,3.331 -5.537,7.438 l 0,147.766 c 0,4.107 2.478,7.437 5.537,7.437 l 230.327,0 c 3.058,0 5.537,-3.33 5.537,-7.437 L 0,0 z"
             style="fill:#000000;fill-opacity:1;fill-rule:nonzero;stroke:none"
             id="path440" />
        </g>
      </g>
    </g>
    <g
       transform="matrix(1.25,0,0,-1.25,-504.48375,1271.2103)"
       id="g442">
      <g
         id="g444"
         clip-path="url(#clipPath446)">
        <g
           id="g450">
          <g
             id="g452">
            <path
               inkscape:connector-curvature="0"
               d="m 454.463,200.535 222.812,0 0,137.358 -222.812,0 0,-137.358 z"
               style="fill:url(#linearGradient454);stroke:none"
               id="path460" />
          </g>
        </g>
      </g>
    </g>
    <g
       transform="matrix(1.25,0,0,-1.25,-504.48375,1271.2103)"
       id="g462">
      <g
         id="g464"
         clip-path="url(#clipPath466)">
        <g
           id="g470"
           transform="translate(403.7256,181.9365)">
          <path
             inkscape:connector-curvature="0"
             d="m 0,0 c 0,0 -2.009,-3.741 12.263,-6.858 l 298.737,0 c 0,0 9.993,0.64 12.626,5.351 l 0.018,2.58 L 0,0 z"
             style="fill:#5f6767;fill-opacity:1;fill-rule:nonzero;stroke:none"
             id="path472" />
        </g>
      </g>
    </g>
    <g
       transform="matrix(1.25,0,0,-1.25,-504.48375,1271.2103)"
       id="g474">
      <g
         id="g476"
         clip-path="url(#clipPath478)">
        <g
           id="g482">
          <g
             id="g484">
            <path
               inkscape:connector-curvature="0"
               d="m 403.797,189.489 -0.21,-8.037 c 0.276,-1.941 3.257,-1.108 3.257,-1.108 l 0,0 317.304,0 c 3.81,-0.277 3.326,0.831 3.326,0.831 l 0,0 0,8.314 -323.677,0 z"
               style="fill:url(#linearGradient486);stroke:none"
               id="path506" />
          </g>
        </g>
      </g>
    </g>
    <g
       transform="matrix(1.25,0,0,-1.25,-504.48375,1271.2103)"
       id="g508">
      <g
         id="g510"
         clip-path="url(#clipPath512)">
        <g
           id="g516"
           transform="translate(712.4385,184.6367)">
          <path
             inkscape:connector-curvature="0"
             d="m 0,0 c 0,-0.323 -0.214,-0.584 -0.479,-0.584 l -11.014,0 c -0.265,0 -0.479,0.261 -0.479,0.584 0,0.323 0.214,0.585 0.479,0.585 l 11.014,0 C -0.214,0.585 0,0.323 0,0"
             style="fill:#5f6767;fill-opacity:1;fill-rule:nonzero;stroke:none"
             id="path518" />
        </g>
      </g>
    </g>
    <g
       transform="matrix(1.25,0,0,-1.25,-504.48375,1271.2103)"
       id="g520">
      <g
         id="g522"
         clip-path="url(#clipPath524)">
        <g
           id="g528">
          <g
             id="g530">
            <path
               inkscape:connector-curvature="0"
               d="m 546.56,184.848 37.549,0 c 0,0 3.995,-0.519 3.465,4.435 l 0,0 -43.924,0.138 c 0,0 -1.247,-4.156 2.91,-4.573"
               style="fill:url(#linearGradient532);stroke:none"
               id="path544" />
          </g>
        </g>
      </g>
    </g>
    <g
       transform="matrix(1.25,0,0,-1.25,-504.48375,1271.2103)"
       id="g546">
      <g
         id="g548"
         clip-path="url(#clipPath550)">
        <g
           id="g554">
          <g
             id="g556">
            <path
               inkscape:connector-curvature="0"
               d="m 545.81,185.235 c -2.99,0.875 -1.952,4.191 -1.952,4.191 l 0,0 0.027,0 0.016,0.098 -0.458,0.002 c 0,0 -1.132,-3.61 2.367,-4.291"
               style="fill:url(#linearGradient558);stroke:none"
               id="path570" />
          </g>
        </g>
      </g>
    </g>
    <g
       transform="matrix(1.25,0,0,-1.25,-504.48375,1271.2103)"
       id="g572">
      <g
         id="g574"
         clip-path="url(#clipPath576)">
        <g
           id="g580">
          <g
             id="g582">
            <path
               inkscape:connector-curvature="0"
               d="m 587.377,189.195 c 0.291,-4.679 -3.476,-4.041 -3.476,-4.041 l 0,0 -37.549,0 c -0.194,0.019 -0.371,0.047 -0.542,0.081 l 0,0 c 0.283,-0.083 0.598,-0.146 0.958,-0.18 l 0,0 37.55,0 c 0,0 3.88,-0.662 3.463,4.238 l 0,0 -0.404,0.002 0,-0.1 z"
               style="fill:url(#linearGradient584);stroke:none"
               id="path596" />
          </g>
        </g>
      </g>
    </g>
    <g
       transform="matrix(1.25,0,0,-1.25,-504.48375,1271.2103)"
       id="g598">
      <g
         id="g600"
         clip-path="url(#clipPath602)">
        <g
           id="g606">
          <g
             id="g608">
            <path
               inkscape:connector-curvature="0"
               d="m 587.372,189.295 c 0.002,-0.034 0.002,-0.066 0.005,-0.1 l 0,0 0,0.1 -0.005,0 z"
               style="fill:url(#linearGradient610);stroke:none"
               id="path622" />
          </g>
        </g>
      </g>
    </g>
  </g>
</svg>
